<?xml version="1.0" encoding="utf-8"?>
<!-- Generator: Adobe Illustrator 22.1.0, SVG Export Plug-In . SVG Version: 6.00 Build 0)  -->
<svg version="1.1" id="Слой_1" xmlns="http://www.w3.org/2000/svg" xmlns:xlink="http://www.w3.org/1999/xlink" x="0px" y="0px"
	 viewBox="0 0 640 512" style="enable-background:new 0 0 640 512;" xml:space="preserve">
<style type="text/css">
	.st0{fill:#FCDB60;}
	.st1{fill:#75A9D8;}
</style>
<path class="st0" d="M294.2,1.2c5.1,2.1,8.7,6.7,9.6,12.1l10.4,62.4c-23.3,10.8-42.9,28.4-56,50.3c-14.6-9-31.8-14.1-50.2-14.1
	c-53,0-96,43-96,96c0,35.5,19.3,66.6,48,83.2c0.8,31.8,13.2,60.7,33.1,82.7l-56,39.2c-4.5,3.1-10.3,3.8-15.4,1.6s-8.7-6.7-9.6-12.1
	l-14-84.6l-84.7-14.1c-5.4-0.9-10-4.5-12.1-9.6s-1.5-10.9,1.6-15.4L52.5,208L2.9,137.2c-3.2-4.5-3.8-10.3-1.6-15.4s6.7-8.7,12.1-9.6
	l84.7-14.1l14.1-84.7c0.9-5.4,4.5-10,9.6-12.1s10.9-1.5,15.4,1.6L208,52.5l70.8-49.6c4.5-3.2,10.3-3.8,15.4-1.6L294.2,1.2z"/>
<path class="st0" d="M208,144c13.8,0,26.7,4.4,37.1,11.9c-1.2,4.1-2.2,8.3-3,12.6c-37.9,14.6-67.2,46.6-77.8,86.4
	C151.8,243.1,144,226.5,144,208C144,172.7,172.7,144,208,144z"/>
<path class="st1" d="M277.4,420c11,7.4,14,22.3,6.7,33.3l-32,48c-7.4,11-22.3,14-33.3,6.7s-14-22.3-6.7-33.3l32-48
	C251.5,415.7,266.4,412.7,277.4,420z M373.4,420c11,7.4,14,22.3,6.7,33.3l-32,48c-7.4,11-22.3,14-33.3,6.7s-14-22.3-6.7-33.3l32-48
	C347.5,415.7,362.4,412.7,373.4,420z M469.4,420c11,7.4,14,22.3,6.7,33.3l-32,48c-7.4,11-22.3,14-33.3,6.7s-14-22.3-6.7-33.3l32-48
	C443.5,415.7,458.4,412.7,469.4,420z M565.4,420c11,7.4,14,22.3,6.7,33.3l-32,48c-7.4,11-22.3,14-33.3,6.7s-14-22.3-6.7-33.3l32-48
	C539.5,415.7,554.4,412.7,565.4,420z M639.9,303.9c0,44.2-35.8,80-80,80H288c-53,0-96-43-96-96c0-47.6,34.6-87,80-94.6V192
	c0-53,43-96,96-96c34.9,0,65.4,18.6,82.2,46.4c13-9.1,28.8-14.4,45.8-14.4c44.2,0,80,35.8,80,80c0,5.9-0.6,11.7-1.9,17.2
	C611.5,231.9,639.9,264.6,639.9,303.9L639.9,303.9z"/>
</svg>
