<?xml version="1.0" encoding="utf-8"?>
<!-- Generator: Adobe Illustrator 22.1.0, SVG Export Plug-In . SVG Version: 6.00 Build 0)  -->
<svg version="1.1" id="Слой_1" xmlns="http://www.w3.org/2000/svg" xmlns:xlink="http://www.w3.org/1999/xlink" x="0px" y="0px"
	 viewBox="0 0 640 512" style="enable-background:new 0 0 640 512;" xml:space="preserve">
<style type="text/css">
	.st0{fill:#FCDB60;}
	.st1{fill:#75A9D8;}
</style>
<path class="st0" d="M294.2,1.2c5.1,2.1,8.7,6.7,9.6,12.1L317.9,98l84.7,14.1c5.4,0.9,10,4.5,12.1,9.6s1.5,10.9-1.6,15.4l-38.5,55
	c-2.2-0.1-4.4-0.2-6.7-0.2c-23.3,0-45.1,6.2-64,17.1v-1.1c0-53-43-96-96-96s-96,43-96,96s43,96,96,96c8.1,0,15.9-1,23.4-2.9
	c-36.6,18.1-63.3,53.1-69.8,94.9l-24.4,17c-4.5,3.2-10.3,3.8-15.4,1.6s-8.7-6.7-9.6-12.1l-14-84.5l-84.7-14.1
	c-5.4-0.9-10-4.5-12.1-9.6s-1.5-10.9,1.6-15.4L52.5,208L2.9,137.2c-3.2-4.5-3.8-10.3-1.6-15.4s6.7-8.7,12.1-9.6l84.7-14.1l14.1-84.7
	c0.9-5.4,4.5-10,9.6-12.1s10.9-1.5,15.4,1.6L208,52.5l70.8-49.6c4.5-3.2,10.3-3.8,15.4-1.6L294.2,1.2z"/>
<circle class="st0" cx="208" cy="208" r="64"/>
<path class="st1" d="M639.9,431.9c0,44.2-35.8,80-80,80H288c-53,0-96-43-96-96c0-47.6,34.6-87,80-94.6V320c0-53,43-96,96-96
	c34.9,0,65.4,18.6,82.2,46.4c13-9.1,28.8-14.4,45.8-14.4c44.2,0,80,35.8,80,80c0,5.9-0.6,11.7-1.9,17.2
	C611.5,359.9,639.9,392.6,639.9,431.9L639.9,431.9z"/>
</svg>
