<?xml version="1.0" encoding="utf-8"?>
<!-- Generator: Adobe Illustrator 22.1.0, SVG Export Plug-In . SVG Version: 6.00 Build 0)  -->
<svg version="1.1" id="Слой_1" xmlns="http://www.w3.org/2000/svg" xmlns:xlink="http://www.w3.org/1999/xlink" x="0px" y="0px"
	 viewBox="0 0 512 512" style="enable-background:new 0 0 512 512;" xml:space="preserve">
<style type="text/css">
	.st0{fill:#476589;}
</style>
<path class="st0" d="M96,320c-53,0-96-43-96-96c0-42.5,27.6-78.6,65.9-91.2c-1.2-6.7-1.9-13.7-1.9-20.8C64,50.1,114.1,0,176,0
	c43.1,0,80.5,24.3,99.2,60c14.7-17.1,36.5-28,60.8-28c44.2,0,80,35.8,80,80c0,5.5-0.6,10.8-1.6,16c0.5,0,1.1,0,1.6,0
	c53,0,96,43,96,96s-43,96-96,96H96z M81.5,353.9c12.2,5.2,17.8,19.3,12.6,31.5l-48,112c-5.2,12.2-19.3,17.8-31.5,12.6
	s-17.9-19.3-12.7-31.5l48-112C55.1,354.3,69.2,348.7,81.5,353.9L81.5,353.9z M201.5,353.9c12.2,5.2,17.8,19.3,12.6,31.5l-48,112
	c-5.2,12.2-19.3,17.8-31.5,12.6s-17.8-19.3-12.6-31.5l48-112C175.2,354.3,189.3,348.7,201.5,353.9z M446.1,385.4l-48,112
	c-5.2,12.2-19.3,17.8-31.5,12.6s-17.8-19.3-12.6-31.5l48-112c5.2-12.2,19.3-17.8,31.5-12.6S451.3,373.2,446.1,385.4z M313.5,353.9
	c12.2,5.2,17.8,19.3,12.6,31.5l-48,112c-5.2,12.2-19.3,17.8-31.5,12.6s-17.8-19.3-12.6-31.5l48-112
	C287.2,354.3,301.3,348.7,313.5,353.9z"/>
</svg>
