<?xml version="1.0" encoding="utf-8"?>
<!-- Generator: Adobe Illustrator 22.1.0, SVG Export Plug-In . SVG Version: 6.00 Build 0)  -->
<svg version="1.1" id="Слой_1" xmlns="http://www.w3.org/2000/svg" xmlns:xlink="http://www.w3.org/1999/xlink" x="0px" y="0px"
	 viewBox="0 0 512 512" style="enable-background:new 0 0 512 512;" xml:space="preserve">
<style type="text/css">
	.st0{fill:#476589;}
</style>
<path class="st0" d="M96,320c-53,0-96-43-96-96c0-42.5,27.6-78.6,65.9-91.2c-1.2-6.7-1.9-13.7-1.9-20.8C64,50.1,114.1,0,176,0
	c43.1,0,80.5,24.3,99.2,60c14.7-17.1,36.5-28,60.8-28c44.2,0,80,35.8,80,80c0,5.5-0.6,10.8-1.6,16c0.5,0,1.1,0,1.6,0
	c53,0,96,43,96,96s-43,96-96,96H96z M89.2,372c1.3-2.5,3.9-4,6.8-4s5.4,1.5,6.8,4l35.1,64.6c4.1,7.5,6.2,15.8,6.2,24.3v3
	c0,26.5-21.5,48-48,48s-48-21.5-48-48v-3c0-8.5,2.1-16.9,6.2-24.3L89.2,372z M249.2,372c1.3-2.5,3.9-4,6.8-4c2.9,0,5.4,1.5,6.8,4
	l35.1,64.6c4.1,7.5,6.2,15.8,6.2,24.3v3c0,26.5-21.5,48-48,48s-48-21.5-48-48v-3c0-8.5,2.1-16.9,6.2-24.3L249.2,372z M374.1,436.6
	l35.1-64.6c1.3-2.5,3.9-4,6.8-4s5.4,1.5,6.8,4l35.1,64.6c4.1,7.5,6.2,15.8,6.2,24.3v3c0,26.5-21.5,48-48,48s-48-21.5-48-48v-3
	c0-8.5,2.1-16.9,6.2-24.3H374.1z"/>
</svg>
